<svg width="39" height="56" viewBox="0 0 39 56" fill="none" xmlns="http://www.w3.org/2000/svg">
<g style="mix-blend-mode:luminosity" opacity="0.3">
<line x1="7" y1="27.0419" x2="7" y2="11.6254" stroke="#052B13" stroke-width="4" stroke-linecap="square"/>
<line x1="22" y1="36" x2="22" y2="2" stroke="#1DD960" stroke-width="4" stroke-linecap="square"/>
<line x1="17" y1="24.42" x2="17" y2="15" stroke="#1FAB51" stroke-width="4" stroke-linecap="square"/>
<line x1="32" y1="20" x2="32" y2="20" stroke="#0E622C" stroke-width="4" stroke-linecap="square"/>
<line x1="37" y1="22" x2="37" y2="18" stroke="#052B13" stroke-width="4" stroke-linecap="square"/>
<line x1="2" y1="22" x2="2" y2="18" stroke="black" stroke-width="4" stroke-linecap="square"/>
<line x1="12" y1="34" x2="12" y2="10" stroke="#0E622C" stroke-width="4" stroke-linecap="square"/>
<line x1="27" y1="34" x2="27" y2="10" stroke="#1FAB51" stroke-width="4" stroke-linecap="square"/>
<path d="M12.24 46.504C12.24 48.954 10.504 50.06 8.348 50.06H6.5V53.504L4.708 54.134C4.316 54.274 4.12 54.148 4.12 53.756V42.948H8.488C10.644 42.948 12.24 44.054 12.24 46.504ZM6.5 45.02V47.988H7.774C8.866 47.988 9.804 47.736 9.804 46.504C9.804 45.272 8.866 45.02 7.774 45.02H6.5ZM16.2467 44.656H13.6987V42.22H16.2467V44.656ZM16.1487 53.518L14.3847 54.134C14.0067 54.26 13.7967 54.148 13.7967 53.756V45.944H16.1487V53.518ZM27.3147 50.438C27.1047 52.79 25.1727 54.176 22.6667 54.176C20.0067 54.176 17.9767 52.622 17.9767 49.962V46.882C17.9767 44.222 20.0067 42.668 22.6667 42.668C25.1727 42.668 27.1047 44.054 27.3147 46.406L24.9067 46.588C24.7527 45.37 23.9967 44.768 22.6667 44.768C21.1407 44.768 20.3567 45.566 20.3567 47.19V49.654C20.3567 51.278 21.1407 52.076 22.6667 52.076C23.9967 52.076 24.7527 51.474 24.9067 50.256L27.3147 50.438ZM31.5605 53.504L29.7685 54.134C29.3765 54.274 29.1805 54.148 29.1805 53.756V42.948H31.5605V47.4L35.2565 42.948H38.1405L33.6465 48.254L38.2805 53.896H35.3545L31.5605 49.206V53.504Z" fill="black"/>
</g>
</svg>
