<svg width="39" height="56" viewBox="0 0 39 56" fill="none" xmlns="http://www.w3.org/2000/svg">
<line x1="7" y1="27.0419" x2="7" y2="11.6254" stroke="#052B13" stroke-width="4" stroke-linecap="square"/>
<line x1="22" y1="36" x2="22" y2="2" stroke="#1DD960" stroke-width="4" stroke-linecap="square"/>
<line x1="17" y1="24.42" x2="17" y2="15" stroke="#1FAB51" stroke-width="4" stroke-linecap="square"/>
<line x1="32" y1="20" x2="32" y2="20" stroke="#0E622C" stroke-width="4" stroke-linecap="square"/>
<line x1="37" y1="22" x2="37" y2="18" stroke="#052B13" stroke-width="4" stroke-linecap="square"/>
<line x1="2" y1="22" x2="2" y2="18" stroke="black" stroke-width="4" stroke-linecap="square"/>
<line x1="12" y1="34" x2="12" y2="10" stroke="#0E622C" stroke-width="4" stroke-linecap="square"/>
<line x1="27" y1="34" x2="27" y2="10" stroke="#1FAB51" stroke-width="4" stroke-linecap="square"/>
<path d="M10.24 46.504C10.24 48.954 8.504 50.06 6.348 50.06H4.5V53.504L2.708 54.134C2.316 54.274 2.12 54.148 2.12 53.756V42.948H6.488C8.644 42.948 10.24 44.054 10.24 46.504ZM4.5 45.02V47.988H5.774C6.866 47.988 7.804 47.736 7.804 46.504C7.804 45.272 6.866 45.02 5.774 45.02H4.5ZM14.2467 44.656H11.6987V42.22H14.2467V44.656ZM14.1487 53.518L12.3847 54.134C12.0067 54.26 11.7967 54.148 11.7967 53.756V45.944H14.1487V53.518ZM25.3147 50.438C25.1047 52.79 23.1727 54.176 20.6667 54.176C18.0067 54.176 15.9767 52.622 15.9767 49.962V46.882C15.9767 44.222 18.0067 42.668 20.6667 42.668C23.1727 42.668 25.1047 44.054 25.3147 46.406L22.9067 46.588C22.7527 45.37 21.9967 44.768 20.6667 44.768C19.1407 44.768 18.3567 45.566 18.3567 47.19V49.654C18.3567 51.278 19.1407 52.076 20.6667 52.076C21.9967 52.076 22.7527 51.474 22.9067 50.256L25.3147 50.438ZM29.5605 53.504L27.7685 54.134C27.3765 54.274 27.1805 54.148 27.1805 53.756V42.948H29.5605V47.4L33.2565 42.948H36.1405L31.6465 48.254L36.2805 53.896H33.3545L29.5605 49.206V53.504Z" fill="black"/>
</svg>
